# xmcd
#
# Track frame offsets:
#	150
#	17642
#	36464
#	50362
#	66482
#	85103
#
# Disc length: 1368 seconds
#
# Revision: 1
# Processed by: cddbd v1.5.1PL0 Copyright (c) Steve Scherf et al.
# Submitted via: audiograbber 1.83.01
#
DISCID=4b055606
DTITLE=Verbal Jint - Sex Drive
DYEAR=2000
DGENRE=Hip Hop
TTITLE0=Sex Drive (Feat. Shy-D)
TTITLE1=Big Pie (Feat. B-Soap and Masta 2dirty)
TTITLE2=To All The Hip-Hop Kids (Feat. 4WD)
TTITLE3=Sex Drive (Sex-a-lot MIX) (Feat. Shy-D and Han-A!)
TTITLE4=Sex Drive (Tafka Buddah MIX) (Feat. Shy-D and B-Soap)
TTITLE5=Sex Drive (inst)
EXTD=
EXTT0=
EXTT1=
EXTT2=
EXTT3=
EXTT4=
EXTT5=
PLAYORDER=
